<?xml version="1.0" encoding="utf-8"?>
<svg viewBox="0.4000000059604645 0 598.2999877929688 529.2000122070312" xmlns="http://www.w3.org/2000/svg" xmlns:bx="https://boxy-svg.com">
  <polyline style="stroke: rgb(0, 0, 0); stroke-width: 3; fill: none;" points="1.924 141.37 1.924 527.71 211.999 527.71 492.47 527.71 492.47 422.948 562.318 422.948 562.318 282.156 597.234 282.156 597.234 247.235 562.823 247.235 562.823 142.478" transform=""/>
  <g transform="matrix(1, 0, 0, 1, 0.026259, -0.02626)">
    <line style="stroke: rgb(0, 0, 0);" x1="541.155" y1="142.879" x2="247.324" y2="457.882"/>
    <line style="stroke: rgb(0, 0, 0);" x1="523.018" y1="142.724" x2="247.341" y2="457.894"/>
    <line style="stroke: rgb(0, 0, 0);" x1="502.355" y1="143.033" x2="247.357" y2="457.832"/>
    <line style="stroke: rgb(0, 0, 0);" x1="483.663" y1="142.879" x2="247.361" y2="457.861"/>
    <line style="stroke: rgb(0, 0, 0);" x1="463.955" y1="142.879" x2="247.357" y2="457.882"/>
    <line style="stroke: rgb(0, 0, 0);" x1="444.736" y1="142.725" x2="247.341" y2="457.948"/>
    <line style="stroke: rgb(0, 0, 0);" x1="424.885" y1="142.879" x2="247.37" y2="457.87"/>
    <line style="stroke: rgb(0, 0, 0);" x1="403.517" y1="142.416" x2="247.352" y2="457.875"/>
    <line style="stroke: rgb(0, 0, 0);" x1="387.701" y1="135.684" x2="247.387" y2="457.909"/>
    <line style="stroke: rgb(0, 0, 0);" x1="386.899" y1="80.954" x2="247.354" y2="457.804"/>
    <line style="stroke: rgb(0, 0, 0);" x1="367.572" y1="71.659" x2="247.37" y2="457.904"/>
    <line style="stroke: rgb(0, 0, 0);" x1="342.143" y1="72.264" x2="247.29" y2="457.951"/>
    <line style="stroke: rgb(0, 0, 0);" x1="318.233" y1="71.659" x2="247.387" y2="457.909"/>
    <line style="stroke: rgb(0, 0, 0);" x1="295.219" y1="72.264" x2="247.335" y2="457.875"/>
    <line style="stroke: rgb(0, 0, 0);" x1="271.303" y1="71.356" x2="247.385" y2="457.862"/>
    <line style="stroke: rgb(0, 0, 0);" x1="247.387" y1="72.264" x2="247.387" y2="457.945"/>
    <line style="stroke: rgb(0, 0, 0);" x1="223.937" y1="71.985" x2="247.387" y2="457.848"/>
    <line style="stroke: rgb(0, 0, 0);" x1="128.327" y1="141.745" x2="247.387" y2="457.909"/>
    <line style="stroke: rgb(0, 0, 0);" x1="109.873" y1="142.294" x2="247.385" y2="457.828"/>
    <line style="stroke: rgb(0, 0, 0);" x1="142.037" y1="123.123" x2="247.37" y2="457.857"/>
    <line style="stroke: rgb(0, 0, 0);" x1="89.967" y1="142.801" x2="247.387" y2="457.892"/>
    <line style="stroke: rgb(0, 0, 0);" x1="70.048" y1="141.967" x2="247.387" y2="457.945"/>
    <line style="stroke: rgb(0, 0, 0);" x1="50.006" y1="142.498" x2="247.354" y2="457.909"/>
    <line style="stroke: rgb(0, 0, 0);" x1="31.224" y1="141.973" x2="247.387" y2="457.945"/>
    <line style="stroke: rgb(0, 0, 0);" x1="11.139" y1="142.21" x2="247.404" y2="457.898"/>
    <line style="stroke: rgb(0, 0, 0);" x1="2.375" y1="154.868" x2="247.387" y2="457.945"/>
    <line style="stroke: rgb(0, 0, 0);" x1="142.378" y1="33.671" x2="247.418" y2="457.795"/>
    <line style="stroke: rgb(0, 0, 0);" x1="162.112" y1="2.117" x2="247.381" y2="457.905"/>
    <line style="stroke: rgb(0, 0, 0);" x1="190.986" y1="2.498" x2="247.381" y2="457.853"/>
  </g>
  <line x1="0.396" y1="141.791" x2="143.153" y2="141.791" style="stroke: rgb(13, 232, 239); stroke-width: 3;">
    <title>Blue Line</title>
  </line>
  <line style="stroke-width: 3; stroke: rgb(0, 189, 0);" x1="141.663" y1="0" x2="141.663" y2="143.289">
    <title>Green Line</title>
  </line>
  <line x1="387.935" y1="141.791" x2="564.32" y2="141.791" style="stroke: rgb(13, 232, 239); stroke-width: 3;">
    <title>Blue Line</title>
  </line>
  <line style="stroke: rgb(0, 0, 0); stroke-width: 3;" x1="212.441" y1="0" x2="212.441" y2="73.803" bx:origin="Infinity 0.504"/>
  <line style="stroke-width: 3; stroke: rgb(252, 0, 240);" x1="143.155" y1="1.46" x2="210.983" y2="1.46"/>
  <line x1="213.93" y1="72.307" x2="389.401" y2="72.307" style="stroke: rgb(255, 153, 0); stroke-width: 3;"/>
  <line x1="387.943" y1="70.798" x2="387.943" y2="143.314" style="stroke: rgb(247, 255, 0); stroke-width: 3;"/>
  <g>
    <title>Cross</title>
    <line style="stroke: rgb(0, 0, 0); stroke-width: 4;" x1="224.742" y1="448.845" x2="269.828" y2="466.974"/>
    <line style="stroke: rgb(0, 0, 0); stroke-width: 4;" x1="269.357" y1="448.021" x2="224.742" y2="468.151"/>
  </g>
  <line style="stroke: rgb(0, 0, 0);" x1="133.7519073486328" y1="317.1713562011719" x2="378.4093322753906" y2="317.1713562011719"/>
  <line style="stroke: rgb(0, 0, 0);" x1="380.96234130859375" y1="319.4273376464844" x2="380.96234130859375" y2="319.4273376464844"/>
  <text x="401.15" y="321.709" style="font-family: sans-serif; font-size: 24px; white-space: pre;">Projektions</text>
  <text x="401.145" y="348.431" style="font-family: sans-serif; font-size: 24px; white-space: pre;">Ebene</text>
  <text x="251.07" y="489.831" style="font-family: sans-serif; font-size: 24px; white-space: pre;">Standpunkt</text>
</svg>